HIERARCHY
ROOT root
{
	OFFSET 0.000000 0.000000 0.000000
	CHANNELS 6 Xposition Yposition Zposition Zrotation Yrotation Xrotation
	JOINT lhip
	{
		OFFSET 0.058581 -0.082280 -0.017664
		CHANNELS 3 Zrotation Yrotation Xrotation
		JOINT lknee
		{
			OFFSET 0.043451 -0.386469 0.008037
			CHANNELS 3 Zrotation Yrotation Xrotation
			JOINT lankle
			{
				OFFSET -0.014790 -0.426874 -0.037428
				CHANNELS 3 Zrotation Yrotation Xrotation
				JOINT ltoe
				{
					OFFSET 0.041054 -0.060286 0.122042
					CHANNELS 3 Zrotation Yrotation Xrotation
					End Site
					{
						OFFSET 0.000000 0.000000 0.000000
					}
				}
			}
		}
	}
	JOINT rhip
	{
		OFFSET -0.060310 -0.090513 -0.013543
		CHANNELS 3 Zrotation Yrotation Xrotation
		JOINT rknee
		{
			OFFSET -0.043257 -0.383688 -0.004843
			CHANNELS 3 Zrotation Yrotation Xrotation
			JOINT rankle
			{
				OFFSET 0.019056 -0.420046 -0.034562
				CHANNELS 3 Zrotation Yrotation Xrotation
				JOINT rtoe
				{
					OFFSET -0.034840 -0.062106 0.130323
					CHANNELS 3 Zrotation Yrotation Xrotation
					End Site
					{
						OFFSET 0.000000 0.000000 0.000000
					}
				}
			}
		}
	}
	JOINT lowerback
	{
		OFFSET 0.004439 0.124404 -0.038385
		CHANNELS 3 Zrotation Yrotation Xrotation
		JOINT upperback
		{
			OFFSET 0.004488 0.137956 0.026820
			CHANNELS 3 Zrotation Yrotation Xrotation
			JOINT chest
			{
				OFFSET -0.002265 0.056032 0.002855
				CHANNELS 3 Zrotation Yrotation Xrotation
				JOINT lowerneck
				{
					OFFSET -0.013390 0.211636 -0.033468
					CHANNELS 3 Zrotation Yrotation Xrotation
					JOINT upperneck
					{
						OFFSET 0.010113 0.088937 0.050410
						CHANNELS 3 Zrotation Yrotation Xrotation
						End Site
						{
							OFFSET 0.000000 0.000000 0.000000
						}
					}
				}
				JOINT lclavicle
				{
					OFFSET 0.071702 0.114000 -0.018898
					CHANNELS 3 Zrotation Yrotation Xrotation
					JOINT lshoulder
					{
						OFFSET 0.122921 0.045205 -0.019046
						CHANNELS 3 Zrotation Yrotation Xrotation
						JOINT lelbow
						{
							OFFSET 0.255332 -0.015649 -0.022946
							CHANNELS 3 Zrotation Yrotation Xrotation
							JOINT lwrist
							{
								OFFSET 0.265709 0.012698 -0.007375
								CHANNELS 3 Zrotation Yrotation Xrotation
								End Site
								{
									OFFSET 0.000000 0.000000 0.000000
								}
							}
						}
					}
				}
				JOINT rclavicle
				{
					OFFSET -0.082954 0.112472 -0.023707
					CHANNELS 3 Zrotation Yrotation Xrotation
					JOINT rshoulder
					{
						OFFSET -0.113228 0.046853 -0.008472
						CHANNELS 3 Zrotation Yrotation Xrotation
						JOINT relbow
						{
							OFFSET -0.260127 -0.014369 -0.031269
							CHANNELS 3 Zrotation Yrotation Xrotation
							JOINT rwrist
							{
								OFFSET -0.269108 0.006794 -0.006027
								CHANNELS 3 Zrotation Yrotation Xrotation
								End Site
								{
									OFFSET 0.000000 0.000000 0.000000
								}
							}
						}
					}
				}
			}
		}
	}
}
MOTION
Frames: 13
Frame Time: 0.033333
2.334875 0.695418 1.000116 -76.935320 -0.095069 82.869388 -2.287746 -3.500555 4.171191 0.590572 -15.429506 3.279785 2.655534 8.053392 -10.325209 0.000000 -0.000000 0.000000 2.907472 -6.807218 7.219205 -3.941164 -3.761054 2.279606 -0.703409 -13.074084 -12.839606 0.000000 -0.000000 0.000000 0.237758 5.441900 8.417514 -2.240339 -2.423218 6.334247 0.590000 0.738777 -5.071220 -1.463561 29.222963 -9.025717 -0.285883 31.561925 -2.285706 -27.398905 -9.467395 1.544785 -51.358534 -4.879861 14.677661 2.016192 -23.279091 12.114293 -8.242621 -2.314773 -0.121142 22.946826 8.776228 6.944160 60.288232 4.750104 15.059786 -7.990712 26.254640 -4.546823 14.865839 2.987570 -15.188566 
2.341665 0.698915 0.998270 -78.960389 -0.956568 83.394710 -2.799796 -3.200919 3.048721 0.068799 -14.357174 3.727059 2.246682 8.729390 -9.620549 0.000000 -0.000000 0.000000 2.393879 -4.165898 5.162038 -4.173635 -4.357200 4.234246 -0.766154 -13.108550 -13.233012 0.000000 -0.000000 0.000000 -0.310886 5.779640 9.681532 -2.799411 -0.841712 4.799478 0.327026 0.814540 -4.439183 -2.246287 29.948717 -9.110016 -0.983219 30.135112 -5.042452 -26.832740 -9.459731 0.482693 -51.532601 -4.617653 13.559107 1.590404 -23.262626 11.099729 -8.315706 -2.859893 3.364522 23.454468 9.722259 6.850911 60.056222 3.616677 17.022717 -4.755303 26.271100 5.869422 10.101373 3.349082 -1.506099 
2.343504 0.700178 0.996671 -78.750412 -1.223947 83.865682 -3.046467 -3.447936 2.247360 -0.050585 -14.211553 4.045746 2.118378 8.845131 -9.773512 0.000000 -0.000000 0.000000 2.110022 -3.993294 4.518888 -4.189192 -4.650184 4.337859 -0.564946 -13.149146 -13.047348 0.000000 -0.000000 0.000000 -0.639485 5.663604 9.173342 -2.763428 -0.846036 5.001117 0.152288 0.864508 -4.283745 -2.414884 30.413593 -9.196924 -1.030148 29.745935 -5.493374 -26.753951 -9.368553 0.263143 -51.737266 -4.547997 12.948999 1.339571 -23.616653 10.851681 -6.850277 -2.650284 5.138563 23.979856 9.763869 7.244849 59.471781 3.602303 17.727855 -2.965908 26.377849 10.936553 6.316235 3.023110 5.970930 
2.344872 0.701094 0.996347 -78.725159 -1.312958 83.882165 -3.156681 -3.479149 2.111085 -0.021554 -14.303017 4.146398 2.165337 9.018733 -9.967643 0.000000 -0.000000 0.000000 2.032783 -3.937469 4.394241 -4.181841 -4.582711 4.398238 -0.366257 -13.158797 -12.923516 0.000000 -0.000000 0.000000 -0.650969 5.612159 9.285914 -2.852179 -0.776497 5.067012 -0.017045 0.986610 -4.355032 -2.411913 30.361116 -9.653162 -0.531249 29.638746 -4.962746 -27.069882 -9.279480 0.158662 -51.501853 -4.532060 12.977757 2.022478 -23.546757 10.534615 -5.581302 -3.111780 5.460307 24.225587 9.737313 7.292339 59.443097 3.612201 17.774774 -2.848178 26.417477 10.976728 5.849529 3.287412 6.002804 
2.345276 0.701254 0.996457 -78.475146 -1.275391 83.890147 -3.073779 -3.608770 1.849669 -0.210986 -14.315391 4.570268 2.080998 8.759251 -9.939906 0.000000 -0.000000 0.000000 2.033797 -4.035947 4.413630 -4.134050 -4.694857 4.343953 -0.524617 -13.322413 -13.000019 0.000000 -0.000000 0.000000 -0.703807 5.554995 9.178235 -2.776668 -0.930450 5.115152 0.022808 1.027024 -4.310640 -2.459025 30.484528 -9.514571 -0.580279 29.517757 -5.237489 -27.094905 -9.262166 0.179665 -51.501342 -4.597238 12.645649 1.966735 -23.302092 10.032571 -6.697616 -2.760120 5.236792 24.299605 9.790335 7.310475 59.439637 3.550385 17.702137 -3.000515 26.440891 11.139772 6.534851 3.098955 6.530550 
2.345737 0.701590 0.996321 -78.380595 -1.207597 83.721357 -3.021293 -3.639660 1.999854 -0.174676 -14.389423 4.609438 2.186719 8.781256 -9.978141 0.000000 -0.000000 0.000000 2.120038 -4.107118 4.647922 -4.158954 -4.700592 4.187698 -0.421991 -13.290913 -12.854622 0.000000 -0.000000 0.000000 -0.617394 5.548358 9.293468 -2.780253 -0.935057 5.347744 0.011221 1.002742 -4.387406 -2.445837 30.429214 -9.558385 -0.608581 29.598635 -5.072631 -27.004928 -9.160033 0.209432 -51.573921 -4.616463 12.624509 2.152313 -23.412486 10.118242 -6.421317 -2.603674 5.140677 24.183813 9.701927 7.231019 59.673303 3.636936 17.758604 -2.958622 26.404038 11.046298 5.969469 2.968160 6.178466 
2.346788 0.701886 0.996210 -78.587001 -1.251314 83.680143 -2.999355 -3.526936 1.999462 -0.296795 -14.372995 4.598938 2.246336 8.780556 -9.892957 0.000000 -0.000000 0.000000 2.098837 -4.016725 4.533084 -4.215783 -4.675639 4.360511 -0.604840 -13.311450 -12.917814 0.000000 -0.000000 0.000000 -0.617830 5.641544 9.516025 -2.836927 -0.711318 4.937267 0.047435 0.978562 -4.093865 -2.361716 30.259467 -9.554606 -0.696323 29.635171 -5.089316 -27.085752 -9.260081 0.253054 -51.485834 -4.667977 12.597342 2.067526 -23.189618 9.995322 -6.545089 -2.706598 4.818746 24.124564 9.697437 7.180568 59.776946 3.677292 17.848518 -3.039623 26.365095 11.047410 5.914824 3.101123 6.042053 
2.347314 0.701955 0.996217 -78.495761 -1.309809 83.692036 -3.041693 -3.465003 2.022219 -0.302673 -14.364973 4.470256 2.267398 8.848222 -10.050055 0.000000 -0.000000 0.000000 2.017079 -4.015394 4.536242 -4.204613 -4.529005 4.314055 -0.333320 -13.376746 -12.800297 0.000000 -0.000000 0.000000 -0.842350 5.694946 9.470941 -2.863145 -0.710031 4.869649 0.067069 1.185006 -3.939993 -2.099704 30.091074 -9.971220 -0.437375 29.613830 -4.668929 -26.920355 -9.249038 0.342506 -51.747862 -4.826507 12.732107 2.159611 -23.226162 10.216635 -6.566125 -2.459480 4.861606 24.337521 9.210428 6.911096 59.663547 3.641334 17.833869 -3.145232 26.475540 10.799881 6.060073 2.759177 5.748528 
2.347586 0.701934 0.996270 -78.565205 -1.293936 83.625636 -3.079774 -3.408595 2.270709 -0.125198 -14.482473 4.136949 2.280461 8.830328 -9.930401 0.000000 -0.000000 0.000000 1.994762 -4.073713 4.570266 -4.189064 -4.637925 4.353985 -0.458017 -13.263768 -12.817535 0.000000 -0.000000 0.000000 -0.671699 5.632569 9.388777 -2.906075 -0.687150 5.137455 -0.023153 1.077673 -4.143334 -2.113200 29.974989 -9.793188 -0.424067 29.527562 -4.584753 -27.075750 -9.188809 0.433739 -51.656328 -4.511023 12.976846 2.466654 -23.384659 10.896224 -5.516582 -3.181559 5.564765 24.321168 9.454796 7.188313 59.666494 3.652905 17.878082 -3.109299 26.466451 11.072335 5.579105 3.109850 5.844639 
2.348034 0.701656 0.996238 -78.418347 -1.255132 83.601878 -3.024995 -3.402955 2.335878 -0.127200 -14.456051 3.937727 2.206476 8.693863 -9.762031 0.000000 -0.000000 0.000000 1.995911 -4.077949 4.616200 -4.182478 -4.793584 4.281815 -0.487372 -13.296461 -12.764957 0.000000 -0.000000 0.000000 -0.623524 5.583634 9.365582 -2.872018 -0.721553 5.181354 -0.020468 0.945302 -4.343795 -2.190642 30.118348 -9.620986 -0.315891 29.593302 -4.472367 -27.236806 -9.062993 0.362264 -51.528339 -4.423447 12.887214 2.184407 -23.411333 10.404549 -5.943595 -2.984126 4.847678 24.165424 9.516668 7.215246 59.794566 3.634028 17.807604 -3.356310 26.504379 10.226251 6.033460 3.107323 4.791882 
2.348470 0.701563 0.996234 -78.411076 -1.247060 83.656452 -3.068058 -3.384875 2.359613 -0.003637 -14.484113 3.746850 2.268585 8.555829 -9.801987 0.000000 -0.000000 0.000000 1.976513 -4.141430 4.537296 -4.144427 -4.714017 4.251980 -0.455155 -13.203593 -12.638150 0.000000 -0.000000 0.000000 -0.713970 5.593386 9.182609 -2.786255 -0.780804 5.355008 0.004087 0.991067 -4.364765 -2.241994 30.030490 -9.573603 -0.506267 29.435863 -4.960275 -27.244763 -9.050970 0.333373 -51.586513 -4.387351 12.938121 1.894258 -23.334017 10.505274 -6.486430 -2.544781 4.993732 24.180506 9.568681 7.169186 59.771922 3.555544 17.755277 -3.432610 26.533058 10.076915 6.283639 2.891906 4.896916 
2.348750 0.701326 0.996312 -78.360824 -1.204493 83.682947 -2.976828 -3.248431 2.260857 -0.028714 -14.473833 3.778393 2.215309 8.482631 -9.818137 0.000000 -0.000000 0.000000 1.982596 -4.300174 4.529376 -4.126447 -4.659890 4.144593 -0.327845 -13.138003 -12.688890 0.000000 -0.000000 0.000000 -0.720361 5.590601 8.904685 -2.729754 -0.881343 5.699893 -0.006106 0.986875 -4.500866 -2.247016 29.931603 -9.412847 -0.576024 29.330402 -4.981324 -27.272569 -9.114698 0.422104 -51.580763 -4.396086 13.001535 1.847292 -23.319029 10.520723 -6.337928 -2.639287 5.256700 24.230924 9.642545 7.232956 59.720943 3.526557 17.687945 -3.416323 26.525137 9.906299 6.106642 3.068941 5.035418 
2.349160 0.701000 0.996312 -78.334074 -1.134077 83.711858 -2.969079 -3.365007 2.264921 0.109985 -14.442319 3.596615 2.203848 8.348506 -9.631956 0.000000 -0.000000 0.000000 2.021622 -4.248228 4.473760 -4.084881 -4.687471 4.070397 -0.380870 -13.182496 -12.562201 0.000000 -0.000000 0.000000 -0.874845 5.669479 8.626870 -2.614104 -0.953885 5.920335 0.028241 1.169114 -4.759254 -1.693526 30.191432 -8.789568 -0.404552 29.300109 -4.783772 -27.101823 -9.541613 0.668871 -51.756419 -4.468336 13.110333 1.600672 -23.009828 9.826309 -6.426191 -2.717955 5.071541 24.550126 9.643770 7.279505 59.446003 3.200579 17.706927 -3.430842 26.507052 9.786888 5.894595 3.202682 5.327188 
